# xmcd CD database file
#
# Track frame offsets:
#	150
#	12035
#	24430
#	42023
#	58343
#	78100
#	96916
#	111641
#	122713
#	137734
#	157541
#	177113
#	195478
#	210908
#	230708
#	247332
#	262628
#
# Disc length: 3691 seconds
#
# Revision: 2
# Processed by: cddbd v1.5.2PL0 Copyright (c) Steve Scherf et al.
# Submitted via: CDex 1.60beta1-cs1
#
DISCID=d60e6911
DTITLE=Suzy Bogguss - American Folk Songbook
DYEAR=2011
DGENRE=Folk
TTITLE0=Shady Grove
TTITLE1=Shenandoah
TTITLE2=Red River Valley
TTITLE3=Froggy Went A-Courtin'
TTITLE4=Wayfaring Stranger
TTITLE5=Banks of the Ohio
TTITLE6=Johnny Has Gone For a Soldier
TTITLE7=Ol' Dan Tucker
TTITLE8=Rock Island Line
TTITLE9=Sweet Betsy From Pike
TTITLE10=Swing Low Sweet Chariot
TTITLE11=Careless Love
TTITLE12=All the Pretty Little Horses
TTITLE13=Git Along Little Dogies
TTITLE14=Erie Canal
TTITLE15=Wildwood Flower
TTITLE16=Beautiful Dreamer
EXTD=YEAR: 2011
EXTT0=
EXTT1=
EXTT2=
EXTT3=
EXTT4=
EXTT5=
EXTT6=
EXTT7=
EXTT8=
EXTT9=
EXTT10=
EXTT11=
EXTT12=
EXTT13=
EXTT14=
EXTT15=
EXTT16=
PLAYORDER=
